<svg xmlns="http://www.w3.org/2000/svg" xmlns:xlink="http://www.w3.org/1999/xlink" width="220" zoomAndPan="magnify" viewBox="0 0 165 82.499998" height="110" preserveAspectRatio="xMidYMid meet" version="1.0"><defs><clipPath id="6f1a955b4c"><path d="M 0.496094 0 L 164.503906 0 L 164.503906 82.003906 L 0.496094 82.003906 Z M 0.496094 0 " clip-rule="nonzero"/></clipPath><clipPath id="bca1112ba4"><path d="M 153 31 L 156.300781 31 L 156.300781 35 L 153 35 Z M 153 31 " clip-rule="nonzero"/></clipPath><clipPath id="3110132650"><path d="M 8.699219 26.234375 L 34.410156 26.234375 L 34.410156 55.925781 L 8.699219 55.925781 Z M 8.699219 26.234375 " clip-rule="nonzero"/></clipPath><clipPath id="c9eea259fd"><path d="M 33.917969 48.234375 L 21.824219 55.261719 L 21.824219 48.332031 L 33.917969 41.304688 Z M 15.449219 44.925781 L 21.332031 48.332031 L 21.332031 55.261719 L 9.472656 48.402344 Z M 21.308594 26.898438 L 21.308594 33.828125 L 15.449219 37.234375 L 9.449219 33.78125 Z M 33.660156 33.757812 L 27.683594 37.234375 L 21.800781 33.828125 L 21.800781 26.898438 Z M 15.191406 44.5 L 9.214844 47.976562 L 9.191406 34.207031 L 15.167969 37.660156 L 15.167969 44.5 Z M 21.308594 40.925781 L 15.683594 44.191406 L 15.683594 37.683594 L 21.308594 34.421875 Z M 21.800781 34.421875 L 27.425781 37.683594 L 27.425781 44.214844 L 21.800781 40.925781 Z M 21.566406 47.882812 L 15.945312 44.640625 L 21.566406 41.375 L 27.1875 44.640625 Z M 34.035156 40.640625 L 27.917969 44.191406 L 27.917969 37.683594 L 34.269531 33.996094 L 34.269531 33.570312 L 21.683594 26.234375 L 21.425781 26.234375 L 8.816406 33.570312 L 8.699219 33.78125 L 8.722656 48.402344 L 8.839844 48.613281 L 21.449219 55.902344 L 21.707031 55.902344 L 34.292969 48.589844 L 34.410156 48.378906 L 34.410156 40.855469 Z M 34.035156 40.640625 " clip-rule="nonzero"/></clipPath><linearGradient x1="-649.170289" gradientTransform="matrix(0, 16.28453, 16.19547, 0, -13495.054195, 10597.668894)" y1="834.59302" x2="-647.348653" gradientUnits="userSpaceOnUse" y2="834.59302" id="5e12ada0e5"><stop stop-opacity="1" stop-color="rgb(21.580505%, 67.967224%, 89.169312%)" offset="0"/><stop stop-opacity="1" stop-color="rgb(21.548462%, 67.860413%, 89.091492%)" offset="0.0078125"/><stop stop-opacity="1" stop-color="rgb(21.485901%, 67.64679%, 88.937378%)" offset="0.015625"/><stop stop-opacity="1" stop-color="rgb(21.42334%, 67.433167%, 88.783264%)" offset="0.0234375"/><stop stop-opacity="1" stop-color="rgb(21.360779%, 67.219543%, 88.62915%)" offset="0.03125"/><stop stop-opacity="1" stop-color="rgb(21.298218%, 67.004395%, 88.476562%)" offset="0.0390625"/><stop stop-opacity="1" stop-color="rgb(21.235657%, 66.790771%, 88.322449%)" offset="0.046875"/><stop stop-opacity="1" stop-color="rgb(21.173096%, 66.577148%, 88.168335%)" offset="0.0546875"/><stop stop-opacity="1" stop-color="rgb(21.110535%, 66.363525%, 88.014221%)" offset="0.0625"/><stop stop-opacity="1" stop-color="rgb(21.047974%, 66.149902%, 87.860107%)" offset="0.0703125"/><stop stop-opacity="1" stop-color="rgb(20.985413%, 65.936279%, 87.70752%)" offset="0.078125"/><stop stop-opacity="1" stop-color="rgb(20.922852%, 65.722656%, 87.553406%)" offset="0.0859375"/><stop stop-opacity="1" stop-color="rgb(20.860291%, 65.507507%, 87.399292%)" offset="0.09375"/><stop stop-opacity="1" stop-color="rgb(20.797729%, 65.293884%, 87.245178%)" offset="0.101563"/><stop stop-opacity="1" stop-color="rgb(20.735168%, 65.080261%, 87.091064%)" offset="0.109375"/><stop stop-opacity="1" stop-color="rgb(20.672607%, 64.866638%, 86.936951%)" offset="0.117188"/><stop stop-opacity="1" stop-color="rgb(20.610046%, 64.653015%, 86.784363%)" offset="0.125"/><stop stop-opacity="1" stop-color="rgb(20.547485%, 64.439392%, 86.630249%)" offset="0.132813"/><stop stop-opacity="1" stop-color="rgb(20.484924%, 64.225769%, 86.476135%)" offset="0.140625"/><stop stop-opacity="1" stop-color="rgb(20.420837%, 64.012146%, 86.322021%)" offset="0.148438"/><stop stop-opacity="1" stop-color="rgb(20.358276%, 63.796997%, 86.167908%)" offset="0.15625"/><stop stop-opacity="1" stop-color="rgb(20.295715%, 63.583374%, 86.013794%)" offset="0.164062"/><stop stop-opacity="1" stop-color="rgb(20.233154%, 63.369751%, 85.861206%)" offset="0.171875"/><stop stop-opacity="1" stop-color="rgb(20.170593%, 63.156128%, 85.707092%)" offset="0.179688"/><stop stop-opacity="1" stop-color="rgb(20.108032%, 62.942505%, 85.552979%)" offset="0.1875"/><stop stop-opacity="1" stop-color="rgb(20.045471%, 62.728882%, 85.398865%)" offset="0.195313"/><stop stop-opacity="1" stop-color="rgb(19.98291%, 62.515259%, 85.244751%)" offset="0.203125"/><stop stop-opacity="1" stop-color="rgb(19.920349%, 62.30011%, 85.090637%)" offset="0.210938"/><stop stop-opacity="1" stop-color="rgb(19.857788%, 62.086487%, 84.938049%)" offset="0.21875"/><stop stop-opacity="1" stop-color="rgb(19.795227%, 61.872864%, 84.783936%)" offset="0.226563"/><stop stop-opacity="1" stop-color="rgb(19.732666%, 61.659241%, 84.629822%)" offset="0.234375"/><stop stop-opacity="1" stop-color="rgb(19.670105%, 61.445618%, 84.475708%)" offset="0.242188"/><stop stop-opacity="1" stop-color="rgb(19.610596%, 61.228943%, 84.321594%)" offset="0.25"/><stop stop-opacity="1" stop-color="rgb(19.560242%, 61.001587%, 84.164429%)" offset="0.257813"/><stop stop-opacity="1" stop-color="rgb(19.514465%, 60.769653%, 84.005737%)" offset="0.265625"/><stop stop-opacity="1" stop-color="rgb(19.468689%, 60.53772%, 83.847046%)" offset="0.273438"/><stop stop-opacity="1" stop-color="rgb(19.422913%, 60.305786%, 83.688354%)" offset="0.28125"/><stop stop-opacity="1" stop-color="rgb(19.377136%, 60.073853%, 83.529663%)" offset="0.289062"/><stop stop-opacity="1" stop-color="rgb(19.33136%, 59.841919%, 83.370972%)" offset="0.296875"/><stop stop-opacity="1" stop-color="rgb(19.285583%, 59.609985%, 83.21228%)" offset="0.304688"/><stop stop-opacity="1" stop-color="rgb(19.238281%, 59.378052%, 83.053589%)" offset="0.3125"/><stop stop-opacity="1" stop-color="rgb(19.192505%, 59.146118%, 82.894897%)" offset="0.320313"/><stop stop-opacity="1" stop-color="rgb(19.146729%, 58.912659%, 82.736206%)" offset="0.328125"/><stop stop-opacity="1" stop-color="rgb(19.100952%, 58.680725%, 82.577515%)" offset="0.335938"/><stop stop-opacity="1" stop-color="rgb(19.055176%, 58.448792%, 82.418823%)" offset="0.34375"/><stop stop-opacity="1" stop-color="rgb(19.009399%, 58.216858%, 82.260132%)" offset="0.351563"/><stop stop-opacity="1" stop-color="rgb(18.963623%, 57.984924%, 82.10144%)" offset="0.359375"/><stop stop-opacity="1" stop-color="rgb(18.917847%, 57.752991%, 81.942749%)" offset="0.367188"/><stop stop-opacity="1" stop-color="rgb(18.87207%, 57.521057%, 81.784058%)" offset="0.375"/><stop stop-opacity="1" stop-color="rgb(18.826294%, 57.289124%, 81.625366%)" offset="0.382812"/><stop stop-opacity="1" stop-color="rgb(18.780518%, 57.055664%, 81.466675%)" offset="0.390625"/><stop stop-opacity="1" stop-color="rgb(18.734741%, 56.82373%, 81.307983%)" offset="0.398437"/><stop stop-opacity="1" stop-color="rgb(18.687439%, 56.591797%, 81.149292%)" offset="0.40625"/><stop stop-opacity="1" stop-color="rgb(18.641663%, 56.359863%, 80.990601%)" offset="0.414063"/><stop stop-opacity="1" stop-color="rgb(18.595886%, 56.12793%, 80.831909%)" offset="0.421875"/><stop stop-opacity="1" stop-color="rgb(18.55011%, 55.895996%, 80.673218%)" offset="0.429688"/><stop stop-opacity="1" stop-color="rgb(18.504333%, 55.664062%, 80.514526%)" offset="0.4375"/><stop stop-opacity="1" stop-color="rgb(18.458557%, 55.432129%, 80.355835%)" offset="0.445312"/><stop stop-opacity="1" stop-color="rgb(18.412781%, 55.200195%, 80.197144%)" offset="0.453125"/><stop stop-opacity="1" stop-color="rgb(18.367004%, 54.966736%, 80.038452%)" offset="0.460938"/><stop stop-opacity="1" stop-color="rgb(18.321228%, 54.734802%, 79.879761%)" offset="0.46875"/><stop stop-opacity="1" stop-color="rgb(18.275452%, 54.502869%, 79.721069%)" offset="0.476562"/><stop stop-opacity="1" stop-color="rgb(18.229675%, 54.270935%, 79.562378%)" offset="0.484375"/><stop stop-opacity="1" stop-color="rgb(18.183899%, 54.039001%, 79.403687%)" offset="0.492187"/><stop stop-opacity="1" stop-color="rgb(18.138123%, 53.807068%, 79.244995%)" offset="0.5"/><stop stop-opacity="1" stop-color="rgb(18.09082%, 53.575134%, 79.086304%)" offset="0.507812"/><stop stop-opacity="1" stop-color="rgb(18.045044%, 53.343201%, 78.927612%)" offset="0.515625"/><stop stop-opacity="1" stop-color="rgb(17.999268%, 53.109741%, 78.770447%)" offset="0.523438"/><stop stop-opacity="1" stop-color="rgb(17.953491%, 52.877808%, 78.611755%)" offset="0.53125"/><stop stop-opacity="1" stop-color="rgb(17.907715%, 52.645874%, 78.453064%)" offset="0.539062"/><stop stop-opacity="1" stop-color="rgb(17.861938%, 52.41394%, 78.294373%)" offset="0.546875"/><stop stop-opacity="1" stop-color="rgb(17.816162%, 52.182007%, 78.135681%)" offset="0.554687"/><stop stop-opacity="1" stop-color="rgb(17.770386%, 51.950073%, 77.97699%)" offset="0.5625"/><stop stop-opacity="1" stop-color="rgb(17.724609%, 51.71814%, 77.818298%)" offset="0.570313"/><stop stop-opacity="1" stop-color="rgb(17.678833%, 51.486206%, 77.659607%)" offset="0.578125"/><stop stop-opacity="1" stop-color="rgb(17.633057%, 51.254272%, 77.500916%)" offset="0.585938"/><stop stop-opacity="1" stop-color="rgb(17.58728%, 51.020813%, 77.342224%)" offset="0.59375"/><stop stop-opacity="1" stop-color="rgb(17.541504%, 50.788879%, 77.183533%)" offset="0.601562"/><stop stop-opacity="1" stop-color="rgb(17.494202%, 50.556946%, 77.024841%)" offset="0.609375"/><stop stop-opacity="1" stop-color="rgb(17.448425%, 50.325012%, 76.86615%)" offset="0.617188"/><stop stop-opacity="1" stop-color="rgb(17.402649%, 50.093079%, 76.707458%)" offset="0.625"/><stop stop-opacity="1" stop-color="rgb(17.356873%, 49.861145%, 76.548767%)" offset="0.632812"/><stop stop-opacity="1" stop-color="rgb(17.311096%, 49.629211%, 76.390076%)" offset="0.640625"/><stop stop-opacity="1" stop-color="rgb(17.26532%, 49.397278%, 76.231384%)" offset="0.648437"/><stop stop-opacity="1" stop-color="rgb(17.219543%, 49.165344%, 76.072693%)" offset="0.65625"/><stop stop-opacity="1" stop-color="rgb(17.173767%, 48.931885%, 75.914001%)" offset="0.664063"/><stop stop-opacity="1" stop-color="rgb(17.127991%, 48.699951%, 75.75531%)" offset="0.671875"/><stop stop-opacity="1" stop-color="rgb(17.082214%, 48.468018%, 75.596619%)" offset="0.679688"/><stop stop-opacity="1" stop-color="rgb(17.036438%, 48.236084%, 75.437927%)" offset="0.6875"/><stop stop-opacity="1" stop-color="rgb(16.990662%, 48.00415%, 75.279236%)" offset="0.695312"/><stop stop-opacity="1" stop-color="rgb(16.943359%, 47.772217%, 75.120544%)" offset="0.703125"/><stop stop-opacity="1" stop-color="rgb(16.897583%, 47.540283%, 74.961853%)" offset="0.710938"/><stop stop-opacity="1" stop-color="rgb(16.851807%, 47.30835%, 74.803162%)" offset="0.71875"/><stop stop-opacity="1" stop-color="rgb(16.80603%, 47.07489%, 74.64447%)" offset="0.726562"/><stop stop-opacity="1" stop-color="rgb(16.760254%, 46.842957%, 74.485779%)" offset="0.734375"/><stop stop-opacity="1" stop-color="rgb(16.714478%, 46.611023%, 74.327087%)" offset="0.742187"/><stop stop-opacity="1" stop-color="rgb(16.668701%, 46.379089%, 74.168396%)" offset="0.75"/><stop stop-opacity="1" stop-color="rgb(16.622925%, 46.147156%, 74.009705%)" offset="0.757813"/><stop stop-opacity="1" stop-color="rgb(16.577148%, 45.915222%, 73.851013%)" offset="0.765625"/><stop stop-opacity="1" stop-color="rgb(16.531372%, 45.683289%, 73.692322%)" offset="0.773438"/><stop stop-opacity="1" stop-color="rgb(16.485596%, 45.451355%, 73.53363%)" offset="0.78125"/><stop stop-opacity="1" stop-color="rgb(16.439819%, 45.219421%, 73.374939%)" offset="0.789062"/><stop stop-opacity="1" stop-color="rgb(16.394043%, 44.985962%, 73.216248%)" offset="0.796875"/><stop stop-opacity="1" stop-color="rgb(16.346741%, 44.754028%, 73.057556%)" offset="0.804688"/><stop stop-opacity="1" stop-color="rgb(16.300964%, 44.522095%, 72.898865%)" offset="0.8125"/><stop stop-opacity="1" stop-color="rgb(16.255188%, 44.290161%, 72.740173%)" offset="0.820312"/><stop stop-opacity="1" stop-color="rgb(16.209412%, 44.058228%, 72.581482%)" offset="0.828125"/><stop stop-opacity="1" stop-color="rgb(16.163635%, 43.826294%, 72.422791%)" offset="0.835937"/><stop stop-opacity="1" stop-color="rgb(16.119385%, 43.605042%, 72.270203%)" offset="0.84375"/><stop stop-opacity="1" stop-color="rgb(16.099548%, 43.499756%, 72.198486%)" offset="0.875"/><stop stop-opacity="1" stop-color="rgb(16.099548%, 43.499756%, 72.198486%)" offset="1"/></linearGradient></defs><g clip-path="url(#6f1a955b4c)"><path fill="#ffffff" d="M 0.496094 0 L 164.503906 0 L 164.503906 82.003906 L 0.496094 82.003906 Z M 0.496094 0 " fill-opacity="1" fill-rule="nonzero"/><path fill="#ffffff" d="M 0.496094 0 L 164.503906 0 L 164.503906 82.003906 L 0.496094 82.003906 Z M 0.496094 0 " fill-opacity="1" fill-rule="nonzero"/></g><path fill="#173159" d="M 52.222656 45.632812 C 50.878906 46.957031 49.164062 47.574219 47.351562 47.574219 C 42.644531 47.574219 40.550781 44.308594 40.527344 40.902344 C 40.503906 37.472656 42.738281 34.066406 47.351562 34.066406 C 49.09375 34.066406 50.761719 34.726562 52.082031 36.03125 L 50.691406 37.378906 C 49.773438 36.457031 48.550781 36.03125 47.351562 36.03125 C 44.058594 36.03125 42.550781 38.464844 42.574219 40.855469 C 42.597656 43.246094 44.011719 45.585938 47.351562 45.585938 C 48.550781 45.585938 49.890625 45.089844 50.785156 44.167969 Z M 52.222656 45.632812 " fill-opacity="1" fill-rule="nonzero"/><path fill="#173159" d="M 59.820312 40.050781 L 63.515625 34.300781 L 66.007812 34.300781 L 66.007812 34.398438 L 60.855469 41.96875 L 60.855469 47.3125 L 58.785156 47.3125 L 58.785156 41.96875 L 53.796875 34.398438 L 53.796875 34.300781 L 56.269531 34.300781 Z M 59.820312 40.050781 " fill-opacity="1" fill-rule="nonzero"/><path fill="#173159" d="M 70.785156 45.375 L 74.664062 45.375 C 75.820312 45.375 77.394531 44.996094 77.394531 43.574219 C 77.394531 42.179688 75.867188 41.542969 74.664062 41.542969 L 70.761719 41.542969 L 70.761719 45.375 Z M 70.785156 39.695312 L 74.6875 39.695312 C 76.242188 39.695312 77.019531 39.082031 77.019531 38.0625 C 77.019531 37.140625 76.21875 36.195312 74.664062 36.195312 L 70.785156 36.195312 Z M 74.664062 34.300781 C 77.136719 34.300781 79.066406 35.4375 79.066406 38.015625 C 79.066406 39.105469 78.5 40.097656 77.277344 40.59375 C 78.828125 41.066406 79.488281 42.605469 79.488281 43.597656 C 79.488281 46.4375 77.230469 47.3125 74.6875 47.3125 L 68.761719 47.3125 L 68.761719 34.300781 Z M 74.664062 34.300781 " fill-opacity="1" fill-rule="nonzero"/><path fill="#173159" d="M 92.476562 47.3125 L 82.898438 47.3125 L 82.898438 34.300781 L 92.40625 34.300781 L 92.40625 36.3125 L 84.96875 36.3125 L 84.96875 39.839844 L 92.121094 39.839844 L 92.121094 41.777344 L 84.96875 41.777344 L 84.96875 45.253906 L 92.476562 45.253906 Z M 92.476562 47.3125 " fill-opacity="1" fill-rule="nonzero"/><path fill="#173159" d="M 98.121094 36.195312 L 98.121094 40.925781 L 102.050781 40.925781 C 103.769531 40.925781 104.519531 39.839844 104.519531 38.609375 C 104.519531 37.425781 103.769531 36.21875 102.050781 36.21875 L 98.121094 36.21875 Z M 107.226562 47.3125 L 104.804688 47.3125 L 100.875 42.820312 L 98.144531 42.820312 L 98.144531 47.3125 L 96.074219 47.3125 L 96.074219 34.277344 C 98.097656 34.277344 100.097656 34.300781 102.097656 34.300781 C 105.085938 34.300781 106.660156 36.359375 106.660156 38.5625 C 106.660156 40.429688 105.695312 42.25 103.15625 42.605469 L 107.015625 46.933594 Z M 107.226562 47.3125 " fill-opacity="1" fill-rule="nonzero"/><path fill="#173159" d="M 116.046875 37.945312 L 114.378906 42.085938 L 117.695312 42.085938 Z M 118.941406 45.183594 L 113.15625 45.183594 L 112.308594 47.3125 L 108.425781 47.3125 L 114.238281 34.300781 L 117.929688 34.300781 L 123.71875 47.3125 L 119.789062 47.3125 Z M 118.941406 45.183594 " fill-opacity="1" fill-rule="nonzero"/><path fill="#173159" d="M 129.316406 37.234375 L 129.316406 40.359375 L 132.023438 40.359375 C 132.988281 40.359375 133.410156 39.625 133.410156 38.84375 C 133.410156 38.015625 132.941406 37.234375 131.976562 37.234375 Z M 137.644531 47.3125 L 133.625 47.3125 L 130.613281 43.101562 L 129.339844 43.101562 L 129.339844 47.3125 L 125.671875 47.3125 L 125.671875 34.300781 L 131.976562 34.300781 C 135.292969 34.300781 137.011719 36.429688 137.011719 38.773438 C 137.011719 40.382812 136.445312 41.730469 134.28125 42.699219 L 137.644531 47.078125 Z M 137.644531 47.3125 " fill-opacity="1" fill-rule="nonzero"/><path fill="#173159" d="M 151.667969 34.515625 L 146.421875 40.664062 C 148.234375 42.675781 150.328125 45.019531 152.113281 47.078125 L 152.113281 47.289062 L 147.574219 47.289062 L 143.878906 42.960938 L 143.878906 47.289062 L 140.210938 47.289062 L 140.210938 34.277344 L 143.878906 34.277344 L 143.878906 38.5625 C 144.988281 37.1875 146.1875 35.652344 147.292969 34.277344 L 151.667969 34.277344 Z M 151.667969 34.515625 " fill-opacity="1" fill-rule="nonzero"/><g clip-path="url(#bca1112ba4)"><path fill="#173159" d="M 154.726562 32.695312 L 154.5625 32.695312 L 154.5625 33.238281 L 154.726562 33.238281 C 155.007812 33.238281 155.101562 33.144531 155.101562 32.953125 C 155.078125 32.765625 154.960938 32.695312 154.726562 32.695312 M 155.339844 34.183594 L 155.195312 34.183594 C 155.171875 34.183594 155.148438 34.183594 155.125 34.160156 C 155.078125 34.089844 155.054688 34.042969 155.007812 33.949219 C 154.890625 33.757812 154.820312 33.640625 154.726562 33.523438 C 154.703125 33.5 154.679688 33.472656 154.632812 33.472656 L 154.5625 33.472656 L 154.5625 34.113281 C 154.5625 34.160156 154.515625 34.207031 154.492188 34.207031 L 154.398438 34.207031 C 154.351562 34.207031 154.304688 34.160156 154.304688 34.113281 L 154.304688 32.597656 C 154.304688 32.550781 154.351562 32.527344 154.398438 32.527344 L 154.820312 32.527344 C 155.195312 32.527344 155.386719 32.742188 155.386719 33 C 155.386719 33.238281 155.242188 33.449219 154.9375 33.472656 C 155.03125 33.523438 155.21875 33.78125 155.410156 34.136719 C 155.410156 34.113281 155.410156 34.183594 155.339844 34.183594 M 154.796875 32.03125 C 154.113281 32.03125 153.550781 32.597656 153.550781 33.332031 C 153.550781 34.066406 154.089844 34.632812 154.796875 34.632812 C 155.480469 34.632812 156.042969 34.066406 156.042969 33.332031 C 156.042969 32.597656 155.480469 32.03125 154.796875 32.03125 M 154.796875 34.847656 C 153.972656 34.847656 153.292969 34.183594 153.292969 33.332031 C 153.292969 32.457031 153.972656 31.820312 154.796875 31.820312 C 155.621094 31.820312 156.300781 32.480469 156.300781 33.332031 C 156.300781 34.207031 155.621094 34.847656 154.796875 34.847656 " fill-opacity="1" fill-rule="nonzero"/></g><g clip-path="url(#3110132650)"><g clip-path="url(#c9eea259fd)"><path fill="url(#5e12ada0e5)" d="M 8.699219 26.234375 L 34.410156 26.234375 L 34.410156 55.902344 L 8.699219 55.902344 Z M 8.699219 26.234375 " fill-rule="nonzero"/></g></g></svg>