<svg xmlns="http://www.w3.org/2000/svg" xmlns:xlink="http://www.w3.org/1999/xlink" width="220" zoomAndPan="magnify" viewBox="0 0 165 82.499998" height="110" preserveAspectRatio="xMidYMid meet" version="1.0"><defs><clipPath id="c522990f0c"><path d="M 0.496094 0 L 164.503906 0 L 164.503906 82.003906 L 0.496094 82.003906 Z M 0.496094 0 " clip-rule="nonzero"/></clipPath></defs><g clip-path="url(#c522990f0c)"><path fill="#ffffff" d="M 0.496094 0 L 164.503906 0 L 164.503906 82.003906 L 0.496094 82.003906 Z M 0.496094 0 " fill-opacity="1" fill-rule="nonzero"/><path fill="#ffffff" d="M 0.496094 0 L 164.503906 0 L 164.503906 82.003906 L 0.496094 82.003906 Z M 0.496094 0 " fill-opacity="1" fill-rule="nonzero"/></g><path fill="#091c30" d="M 131.339844 43.347656 L 130.863281 43.347656 L 130.863281 51.550781 L 124.957031 51.550781 L 124.957031 31.121094 L 130.863281 21.914062 L 130.863281 40.976562 C 132.039062 39.539062 136 34.082031 136 34.082031 L 143.292969 34.082031 L 136.378906 41.378906 L 143.53125 51.566406 L 136.070312 51.566406 Z M 114.878906 42.007812 L 117.300781 34.136719 L 123.152344 34.136719 L 116.292969 51.496094 C 114.25 56.714844 111.324219 60.246094 106.957031 60.246094 C 105.277344 60.246094 103.863281 59.8125 103.121094 59.394531 L 105.472656 55.765625 C 105.824219 55.808594 106.1875 55.820312 106.550781 55.820312 C 108.566406 55.820312 110.078125 53.867188 111.058594 51.550781 L 103.863281 34.136719 L 110.484375 34.136719 L 113.074219 41.910156 C 113.578125 43.390625 113.941406 46.207031 113.941406 46.207031 C 113.941406 46.207031 114.40625 43.488281 114.878906 42.007812 Z M 97.035156 41.601562 C 97.035156 39.328125 96.027344 38.253906 94.109375 38.253906 C 93.171875 38.253906 92.191406 38.519531 91.519531 38.921875 L 91.519531 51.550781 L 85.613281 51.550781 L 85.613281 34.304688 L 91.394531 33.828125 L 91.253906 36.648438 L 91.449219 36.648438 C 92.695312 34.972656 94.808594 33.703125 97.328125 33.703125 C 100.351562 33.703125 102.96875 35.574219 102.96875 39.996094 L 102.96875 51.550781 L 97.035156 51.550781 Z M 68.703125 50.660156 L 69.238281 46.640625 C 71.082031 47.546875 73.167969 47.980469 74.917969 47.980469 C 76.191406 47.980469 77.03125 47.546875 77.03125 46.78125 C 77.03125 44.574219 69.066406 45.105469 69.066406 39.34375 C 69.066406 35.65625 72.457031 33.71875 76.695312 33.71875 C 78.808594 33.71875 80.992188 34.289062 82.40625 34.792969 L 81.832031 38.742188 C 80.351562 38.167969 78.335938 37.640625 76.65625 37.640625 C 75.617188 37.640625 74.777344 38.003906 74.777344 38.671875 C 74.777344 40.847656 82.910156 40.417969 82.910156 46.039062 C 82.910156 49.78125 79.578125 51.929688 75.015625 51.929688 C 72.496094 51.929688 70.453125 51.496094 68.703125 50.660156 Z M 68.703125 50.660156 " fill-opacity="1" fill-rule="nonzero"/><path fill="#ffffff" d="M 55.847656 25.199219 L 26.464844 25.199219 C 26.464844 23.363281 29.121094 17.8125 34.429688 8.546875 C 34.429688 8.546875 35.167969 13.433594 36.636719 23.203125 L 45.613281 23.203125 L 47.816406 8.546875 C 53.167969 17.933594 55.847656 23.484375 55.847656 25.199219 Z M 55.847656 25.199219 " fill-opacity="1" fill-rule="nonzero"/><path fill="#ffffff" d="M 41.109375 71.648438 L 21.132812 57.671875 L 21.132812 25.050781 C 21.132812 25.050781 28.519531 22.328125 41.136719 22.328125 C 53.753906 22.328125 61.085938 25.050781 61.085938 25.050781 L 61.085938 57.671875 Z M 41.109375 71.648438 " fill-opacity="1" fill-rule="nonzero"/><path fill="#dbdbdb" d="M 41.109375 69.683594 L 22.40625 56.652344 L 22.40625 26.359375 C 22.40625 26.359375 29.402344 23.832031 41.109375 23.832031 Z M 41.109375 69.683594 " fill-opacity="1" fill-rule="nonzero"/><path fill="#c6c6c6" d="M 41.136719 23.832031 C 41.125 23.832031 41.117188 23.832031 41.109375 23.832031 L 41.109375 69.644531 L 59.648438 56.652344 L 59.648438 26.359375 C 59.648438 26.359375 52.84375 23.832031 41.136719 23.832031 Z M 41.136719 23.832031 " fill-opacity="1" fill-rule="nonzero"/><path fill="#3b3b63" d="M 51.230469 62.554688 L 49.652344 48.871094 L 40.984375 48.871094 L 40.984375 69.714844 L 41.109375 69.832031 C 44.480469 67.53125 47.855469 65.105469 51.230469 62.554688 Z M 51.230469 62.554688 " fill-opacity="1" fill-rule="nonzero"/><path fill="#53537a" d="M 30.996094 62.664062 L 41.109375 69.832031 L 41.113281 48.453125 L 32.355469 48.453125 Z M 30.996094 62.664062 " fill-opacity="1" fill-rule="nonzero"/><path fill="#bc9375" d="M 45.4375 58.613281 C 45.4375 60.964844 43.203125 62.128906 41.152344 62.128906 C 39.105469 62.128906 36.824219 60.964844 36.824219 58.613281 " fill-opacity="1" fill-rule="nonzero"/><path fill="#ffffff" d="M 41.132812 59.828125 C 39.484375 59.828125 38.6875 58.640625 38.6875 56.203125 L 39.46875 56.203125 C 39.46875 59.058594 40.59375 59.058594 41.132812 59.058594 C 41.671875 59.058594 42.792969 59.058594 42.792969 56.203125 L 43.578125 56.203125 C 43.578125 58.640625 42.777344 59.828125 41.132812 59.828125 Z M 41.132812 59.828125 " fill-opacity="1" fill-rule="nonzero"/><path fill="#c49a7e" d="M 41.109375 56.796875 C 41.617188 58.105469 42.59375 58.761719 44.046875 58.761719 C 45.464844 58.761719 46.949219 58.027344 47.621094 56.210938 C 48.566406 53.671875 48.554688 50.136719 48.554688 50.136719 C 48.554688 50.136719 52.746094 44.984375 52.746094 43.238281 L 41.109375 43.238281 Z M 41.109375 56.796875 " fill-opacity="1" fill-rule="nonzero"/><path fill="#d8b7a0" d="M 29.304688 43.238281 C 29.304688 45.257812 33.457031 50.136719 33.457031 50.136719 C 33.457031 50.136719 33.449219 53.667969 34.390625 56.210938 C 35.066406 58.023438 36.550781 58.761719 37.96875 58.761719 C 39.421875 58.761719 40.46875 58.105469 41.109375 56.796875 L 41.109375 43.238281 Z M 29.304688 43.238281 " fill-opacity="1" fill-rule="nonzero"/><path fill="#3b3b63" d="M 52.246094 31.636719 C 49.015625 28.382812 48.207031 21.597656 48.207031 21.597656 C 47.605469 23.734375 46.296875 30.039062 46.296875 30.039062 C 46.296875 30.039062 43.75 29.230469 41.007812 29.226562 C 40.917969 29.226562 40.917969 37.71875 41.007812 54.703125 L 43.617188 52.851562 L 44.101562 43.855469 L 46.882812 46.96875 L 50.464844 47.996094 C 50.464844 47.996094 51.804688 47.058594 51.804688 47.0625 C 52.371094 46.28125 52.558594 45.613281 52.699219 45.265625 C 53.195312 44.007812 52.078125 34.382812 52.078125 34.382812 C 51.683594 33.566406 52.246094 31.636719 52.246094 31.636719 Z M 52.246094 31.636719 " fill-opacity="1" fill-rule="nonzero"/><path fill="#53537a" d="M 35.992188 30.039062 C 35.992188 30.039062 34.683594 23.734375 34.078125 21.597656 C 34.078125 21.597656 33.273438 28.382812 30.042969 31.636719 C 30.042969 31.636719 30.605469 33.566406 30.210938 34.378906 C 30.210938 34.378906 29.09375 44.007812 29.589844 45.265625 C 29.726562 45.609375 29.917969 46.277344 30.484375 47.0625 C 30.484375 47.058594 31.824219 47.996094 31.824219 47.996094 L 35.40625 46.96875 L 38.183594 43.851562 L 38.671875 52.847656 L 41.113281 54.652344 L 41.113281 29.179688 C 38.359375 29.183594 35.992188 30.039062 35.992188 30.039062 Z M 35.992188 30.039062 " fill-opacity="1" fill-rule="nonzero"/><path fill="#333152" d="M 49.984375 15.3125 C 50.523438 16.292969 55.128906 25.363281 55.128906 28.503906 L 53.085938 33.972656 C 53.429688 37.058594 54.117188 43.761719 53.597656 45.070312 C 53.277344 45.882812 52.058594 47.546875 51.011719 48.898438 L 52.441406 61.703125 L 50.511719 63.070312 L 49.4375 53.710938 C 49.289062 54.660156 49.066406 55.675781 48.730469 56.585938 C 48.28125 57.792969 47.492188 58.707031 46.480469 59.246094 C 46.421875 62.136719 43.710938 63.695312 41.152344 63.695312 C 38.578125 63.695312 35.84375 62.136719 35.78125 59.25 C 34.769531 58.707031 33.976562 57.792969 33.53125 56.585938 C 33.207031 55.710938 32.988281 54.742188 32.839844 53.824219 L 31.8125 63.242188 L 29.871094 61.855469 L 31.273438 48.9375 C 30.21875 47.582031 28.976562 45.890625 28.652344 45.070312 C 28.132812 43.761719 28.792969 37.058594 29.140625 33.972656 L 26.976562 28.3125 L 26.976562 28.128906 C 26.976562 24.988281 31.703125 16.292969 32.238281 15.3125 L 33.769531 12.554688 C 34.703125 18.9375 35.167969 22.132812 35.167969 22.136719 L 35.921875 27.308594 L 36.914062 28.914062 C 37.867188 28.597656 39.484375 28.15625 41.121094 28.15625 C 42.761719 28.15625 44.390625 28.597656 45.347656 28.914062 L 46.339844 27.3125 L 48.488281 12.554688 Z M 41.152344 61.640625 C 42.285156 61.640625 43.894531 61.136719 44.296875 59.808594 C 44.253906 59.808594 44.214844 59.8125 44.171875 59.8125 C 43.949219 59.8125 43.746094 59.789062 43.542969 59.765625 C 42.960938 60.5625 42.050781 60.804688 41.132812 60.804688 C 40.210938 60.804688 39.304688 60.558594 38.722656 59.761719 C 38.523438 59.792969 38.3125 59.8125 38.09375 59.8125 C 38.050781 59.8125 38.007812 59.808594 37.96875 59.808594 C 38.375 61.136719 40.007812 61.640625 41.152344 61.640625 Z M 39.828125 59.453125 C 40.179688 59.710938 40.613281 59.851562 41.132812 59.851562 C 41.648438 59.851562 42.078125 59.707031 42.429688 59.453125 C 42.152344 59.328125 41.898438 59.183594 41.675781 59.027344 C 41.472656 59.085938 41.28125 59.082031 41.132812 59.082031 C 40.980469 59.082031 40.785156 59.082031 40.582031 59.023438 C 40.359375 59.183594 40.109375 59.328125 39.828125 59.453125 Z M 47.867188 49.515625 C 49.253906 47.820312 51.347656 45.089844 51.648438 44.328125 C 51.878906 43.539062 51.488281 38.328125 50.992188 33.957031 L 50.964844 33.714844 L 51.375 32.628906 C 50.023438 31.214844 49.082031 29.273438 48.4375 27.441406 L 48.351562 28.019531 L 46.21875 31.460938 L 45.386719 31.113281 C 45.363281 31.105469 43.1875 30.210938 41.121094 30.210938 C 39.042969 30.210938 36.902344 31.105469 36.882812 31.113281 L 36.046875 31.464844 L 33.910156 28.019531 L 33.847656 27.578125 C 33.195312 29.390625 32.25 31.296875 30.90625 32.679688 L 31.296875 33.714844 L 31.269531 33.957031 C 30.773438 38.328125 30.382812 43.539062 30.621094 44.347656 C 30.917969 45.09375 33.007812 47.824219 34.398438 49.515625 L 34.628906 49.800781 L 34.628906 50.160156 C 34.628906 50.195312 34.632812 53.546875 35.5 55.882812 C 36.128906 57.574219 37.523438 57.753906 38.09375 57.753906 C 39.53125 57.753906 40.140625 56.460938 40.164062 56.40625 C 40.5 55.753906 40.667969 54.6875 40.667969 53.199219 L 41.539062 53.199219 C 41.539062 54.394531 41.71875 55.464844 42.082031 56.410156 C 42.101562 56.457031 42.726562 57.757812 44.171875 57.757812 C 44.742188 57.757812 46.136719 57.574219 46.765625 55.882812 C 47.632812 53.542969 47.636719 50.195312 47.636719 50.164062 L 47.632812 49.800781 Z M 47.867188 49.515625 " fill-opacity="1" fill-rule="nonzero"/><path fill="#333152" d="M 48.9375 40.402344 L 43.445312 40.402344 L 43.445312 40.445312 C 43.445312 41.878906 44.707031 43.042969 46.191406 43.042969 C 47.671875 43.042969 48.9375 41.878906 48.9375 40.445312 Z M 48.9375 40.402344 " fill-opacity="1" fill-rule="nonzero"/><path fill="#ffffff" d="M 44.492188 40.402344 L 44.492188 40.445312 C 44.492188 41.300781 45.191406 41.992188 46.0625 41.992188 C 46.929688 41.992188 47.628906 41.300781 47.628906 40.445312 L 47.628906 40.402344 Z M 44.492188 40.402344 " fill-opacity="1" fill-rule="nonzero"/><path fill="#333152" d="M 45.808594 40.402344 C 45.800781 40.402344 45.796875 40.40625 45.789062 40.40625 C 45.878906 40.425781 45.929688 40.628906 45.910156 40.765625 C 45.882812 40.972656 45.703125 41.113281 45.496094 41.117188 C 45.558594 41.386719 45.78125 41.605469 46.078125 41.644531 C 46.460938 41.699219 46.8125 41.441406 46.863281 41.070312 C 46.902344 40.792969 46.769531 40.402344 46.542969 40.402344 Z M 45.808594 40.402344 " fill-opacity="1" fill-rule="nonzero"/><path fill="#333152" d="M 38.839844 40.402344 L 33.347656 40.402344 L 33.347656 40.445312 C 33.347656 41.878906 34.613281 43.042969 36.09375 43.042969 C 37.574219 43.042969 38.839844 41.878906 38.839844 40.445312 Z M 38.839844 40.402344 " fill-opacity="1" fill-rule="nonzero"/><path fill="#ffffff" d="M 34.394531 40.402344 L 34.394531 40.445312 C 34.394531 41.300781 35.09375 41.992188 35.960938 41.992188 C 36.832031 41.992188 37.53125 41.300781 37.53125 40.445312 L 37.53125 40.402344 Z M 34.394531 40.402344 " fill-opacity="1" fill-rule="nonzero"/><path fill="#333152" d="M 36.445312 40.402344 L 35.710938 40.402344 C 35.703125 40.402344 35.699219 40.40625 35.691406 40.40625 C 35.78125 40.425781 35.832031 40.628906 35.8125 40.765625 C 35.785156 40.972656 35.605469 41.113281 35.398438 41.117188 C 35.460938 41.386719 35.683594 41.605469 35.980469 41.644531 C 36.359375 41.699219 36.714844 41.441406 36.765625 41.070312 C 36.804688 40.792969 36.671875 40.402344 36.445312 40.402344 Z M 36.445312 40.402344 " fill-opacity="1" fill-rule="nonzero"/><path fill="#c49a7e" d="M 47.3125 39.179688 C 47.488281 38.988281 48.980469 37.328125 46.984375 37.328125 C 45.183594 37.328125 43.886719 38.757812 43.542969 39.179688 Z M 47.3125 39.179688 " fill-opacity="1" fill-rule="nonzero"/><path fill="#d8b7a0" d="M 38.710938 39.179688 C 38.367188 38.757812 37.070312 37.328125 35.269531 37.328125 C 33.273438 37.328125 34.765625 38.988281 34.941406 39.179688 Z M 38.710938 39.179688 " fill-opacity="1" fill-rule="nonzero"/><path fill="#d8b7a0" d="M 29.125 27.960938 C 29.242188 26.332031 30.96875 22.425781 32.617188 19.136719 L 33.054688 22.144531 C 32.886719 23.269531 32.121094 27.683594 30.070312 30.460938 Z M 29.125 27.960938 " fill-opacity="1" fill-rule="nonzero"/><path fill="#c49a7e" d="M 49.242188 21.910156 L 49.648438 19.136719 C 51.292969 22.425781 53.023438 26.332031 53.140625 27.960938 L 52.21875 30.402344 C 50 27.34375 49.304688 22.367188 49.242188 21.910156 Z M 49.242188 21.910156 " fill-opacity="1" fill-rule="nonzero"/><path fill="#333152" d="M 39.59375 55.027344 C 38.820312 54.449219 38.027344 53.722656 38.027344 53.164062 C 38.027344 52.796875 38.6875 51.667969 38.6875 51.667969 L 43.59375 51.667969 C 43.59375 51.667969 44.238281 52.671875 44.238281 53.164062 C 44.238281 53.683594 43.4375 54.390625 42.636719 54.96875 C 42.363281 54.507812 42.019531 54.425781 41.859375 54.789062 C 41.777344 54.976562 41.757812 55.25 41.800781 55.53125 C 41.363281 55.808594 41.046875 55.984375 41.046875 55.984375 C 41.046875 55.984375 40.800781 55.84375 40.449219 55.617188 C 40.507812 55.304688 40.496094 54.996094 40.402344 54.789062 C 40.242188 54.421875 39.890625 54.507812 39.617188 54.984375 C 39.609375 55 39.601562 55.011719 39.59375 55.027344 Z M 39.59375 55.027344 " fill-opacity="1" fill-rule="nonzero"/></svg>